# xmcd CD database file
#
# Track frame offsets:
#	150
#	30045
#	52755
#	73487
#	90407
#	113892
#	139342
#	178005
#	212325
#	246040
#	265212
#	288727
#
# Disc length: 4109 seconds
#
# Revision: 1
# Processed by: cddbd v1.5.2PL0 Copyright (c) Steve Scherf et al.
# Submitted via: CDex 1.51
#
DISCID=a8100b0c
DTITLE=Charles Lloyd - The Water Is Wide
DYEAR=2000
DGENRE=Jazz
TTITLE0=Georgia
TTITLE1=The Water Is Wide
TTITLE2=Black Butterfly
TTITLE3=Ballade And Allegro
TTITLE4=Figure In Blue
TTITLE5=Lotus Blossom
TTITLE6=The Monk And The Mermaid
TTITLE7=Song Of Her
TTITLE8=Lady Day
TTITLE9=Heaven
TTITLE10=There Is A Balm In Gilead
TTITLE11=Prayer
EXTD=YEAR: 2000
EXTT0=
EXTT1=
EXTT2=
EXTT3=
EXTT4=
EXTT5=
EXTT6=
EXTT7=
EXTT8=
EXTT9=
EXTT10=
EXTT11=
PLAYORDER=
